ffmpeg started on 2025-06-06 at 20:50:00
Report written to "D:\Convert\FFMetrics\reports\ssim_report-6.txt"
Log level: 32
Command line:
ffmpeg -hide_banner -nostdin -i "G:\\\xc0\xed\xe8\xec\xe5\\\xce\xed\xe3\xee\xe8\xed\xe3\xe8\\!_36_\xce\xf1\xe5\xed\xfc_2024\\DreamCast\\\xd2\xe5\xf2\xf0\xe0\xe4\xfc \xe4\xf0\xf3\xe6\xe1\xfb \xcd\xe0\xf6\xf3\xec\xfd [\xd2\xc2-7]\\[DC] Natsume Yuujinchou Shichi - 10_Telegram_HEVC.mkv" -i "G:\\\xc0\xed\xe8\xec\xe5\\\xce\xed\xe3\xee\xe8\xed\xe3\xe8\\!_36_\xce\xf1\xe5\xed\xfc_2024\\DreamCast\\\xd2\xe5\xf2\xf0\xe0\xe4\xfc \xe4\xf0\xf3\xe6\xe1\xfb \xcd\xe0\xf6\xf3\xec\xfd [\xd2\xc2-7]\\[DC] Natsume Yuujinchou Shichi - 10_Telegram.mp4" -lavfi "[0:v]settb=AVTB,setpts=PTS-STARTPTS,format=pix_fmts=yuv420p10,fps=24000/1001,scale=1920:1080:flags=bicubic[main];[1:v]settb=AVTB,setpts=PTS-STARTPTS,format=pix_fmts=yuv420p,fps=24000/1001,scale=1920:1080:flags=bicubic[ref];[main][ref]ssim=eof_action=endall:stats_file='D\\:/Convert/FFMetrics/logs/ssim_logfile-6.txt'" -f null -
Input #0, matroska,webm, from 'G:\Аниме\Онгоинги\!_36_Осень_2024\DreamCast\Тетрадь дружбы Нацумэ [ТВ-7]\[DC] Natsume Yuujinchou Shichi - 10_Telegram_HEVC.mkv':
  Metadata:
    COMPATIBLE_BRANDS: isomiso2avc1mp41
    MAJOR_BRAND     : isom
    MINOR_VERSION   : 512
    ENCODER         : Lavf61.7.100
  Duration: 00:23:56.72, start: -0.021000, bitrate: 804 kb/s
  Stream #0:0: Video: hevc (Main 10), yuv420p10le(tv, bt709, progressive), 1920x1080 [SAR 1:1 DAR 16:9], 23.98 fps, 23.98 tbr, 1k tbn (default)
      Metadata:
        HANDLER_NAME    : VideoHandler
        VENDOR_ID       : [0][0][0][0]
        ENCODER         : Lavc61.19.100 libx265
        BPS             : 606634
        DURATION        : 00:23:56.559708333
        NUMBER_OF_FRAMES: 34443
        NUMBER_OF_BYTES : 108933370
        _STATISTICS_WRITING_APP: mkvpropedit v66.0.0 ('Josie') 64-bit
        _STATISTICS_WRITING_DATE_UTC: 2025-06-04 15:53:44
        _STATISTICS_TAGS: BPS DURATION NUMBER_OF_FRAMES NUMBER_OF_BYTES
  Stream #0:1: Audio: aac (LC), 48000 Hz, stereo, fltp (default)
      Metadata:
        HANDLER_NAME    : SoundHandler
        VENDOR_ID       : [0][0][0][0]
        ENCODER         : Lavc61.19.100 aac
        BPS             : 193512
        DURATION        : 00:23:56.714000000
        NUMBER_OF_FRAMES: 67347
        NUMBER_OF_BYTES : 34752819
        _STATISTICS_WRITING_APP: mkvpropedit v66.0.0 ('Josie') 64-bit
        _STATISTICS_WRITING_DATE_UTC: 2025-06-04 15:53:44
        _STATISTICS_TAGS: BPS DURATION NUMBER_OF_FRAMES NUMBER_OF_BYTES
Input #1, mov,mp4,m4a,3gp,3g2,mj2, from 'G:\Аниме\Онгоинги\!_36_Осень_2024\DreamCast\Тетрадь дружбы Нацумэ [ТВ-7]\[DC] Natsume Yuujinchou Shichi - 10_Telegram.mp4':
  Metadata:
    major_brand     : isom
    minor_version   : 512
    compatible_brands: isomiso2avc1mp41
    encoder         : Lavf61.1.100
  Duration: 00:23:56.68, start: 0.000000, bitrate: 3388 kb/s
  Stream #1:0[0x1](und): Video: h264 (High) (avc1 / 0x31637661), yuv420p(tv, bt709, progressive), 1920x1080 [SAR 1:1 DAR 16:9], 3240 kb/s, 23.98 fps, 23.98 tbr, 24k tbn (default)
      Metadata:
        handler_name    : VideoHandler
        vendor_id       : [0][0][0][0]
        encoder         : Lavc61.3.100 h264_qsv
  Stream #1:1[0x2](und): Audio: aac (HE-AACv2) (mp4a / 0x6134706D), 48000 Hz, stereo, fltp, 144 kb/s (default)
      Metadata:
        handler_name    : SoundHandler
        vendor_id       : [0][0][0][0]
Stream mapping:
  Stream #0:0 (hevc) -> settb:default
  Stream #1:0 (h264) -> settb:default
  ssim:default -> Stream #0:0 (wrapped_avframe)
  Stream #0:1 -> #0:1 (aac (native) -> pcm_s16le (native))
Output #0, null, to 'pipe:':
  Metadata:
    COMPATIBLE_BRANDS: isomiso2avc1mp41
    MAJOR_BRAND     : isom
    MINOR_VERSION   : 512
    encoder         : Lavf61.7.100
  Stream #0:0: Video: wrapped_avframe, yuv420p10le(tv, bt709, progressive), 1920x1080 [SAR 1:1 DAR 16:9], q=2-31, 200 kb/s, 23.98 fps, 23.98 tbn
      Metadata:
        encoder         : Lavc61.19.100 wrapped_avframe
  Stream #0:1: Audio: pcm_s16le, 48000 Hz, stereo, s16, 1536 kb/s (default)
      Metadata:
        HANDLER_NAME    : SoundHandler
        VENDOR_ID       : [0][0][0][0]
        _STATISTICS_TAGS: BPS DURATION NUMBER_OF_FRAMES NUMBER_OF_BYTES
        BPS             : 193512
        DURATION        : 00:23:56.714000000
        NUMBER_OF_FRAMES: 67347
        NUMBER_OF_BYTES : 34752819
        _STATISTICS_WRITING_APP: mkvpropedit v66.0.0 ('Josie') 64-bit
        _STATISTICS_WRITING_DATE_UTC: 2025-06-04 15:53:44
        encoder         : Lavc61.19.100 pcm_s16le
frame=  177 fps=0.0 q=-0.0 size=N/A time=00:00:07.38 bitrate=N/A speed=14.2x    frame=  344 fps=334 q=-0.0 size=N/A time=00:00:14.34 bitrate=N/A speed=13.9x    frame=  548 fps=353 q=-0.0 size=N/A time=00:00:22.85 bitrate=N/A speed=14.7x    frame=  765 fps=371 q=-0.0 size=N/A time=00:00:31.90 bitrate=N/A speed=15.5x    frame=  967 fps=374 q=-0.0 size=N/A time=00:00:40.33 bitrate=N/A speed=15.6x    frame= 1182 fps=382 q=-0.0 size=N/A time=00:00:49.29 bitrate=N/A speed=15.9x    frame= 1395 fps=386 q=-0.0 size=N/A time=00:00:58.18 bitrate=N/A speed=16.1x    frame= 1614 fps=391 q=-0.0 size=N/A time=00:01:07.31 bitrate=N/A speed=16.3x    frame= 1811 fps=390 q=-0.0 size=N/A time=00:01:15.53 bitrate=N/A speed=16.3x    frame= 1989 fps=386 q=-0.0 size=N/A time=00:01:22.95 bitrate=N/A speed=16.1x    frame= 2207 fps=389 q=-0.0 size=N/A time=00:01:32.05 bitrate=N/A speed=16.2x    frame= 2460 fps=397 q=-0.0 size=N/A time=00:01:42.60 bitrate=N/A speed=16.6x    frame= 2745 fps=409 q=-0.0 size=N/A time=00:01:54.48 bitrate=N/A speed=17.1x    frame= 3001 fps=415 q=-0.0 size=N/A time=00:02:05.16 bitrate=N/A speed=17.3x    frame= 3279 fps=424 q=-0.0 size=N/A time=00:02:16.76 bitrate=N/A speed=17.7x    frame= 3561 fps=432 q=-0.0 size=N/A time=00:02:28.52 bitrate=N/A speed=  18x    frame= 3851 fps=440 q=-0.0 size=N/A time=00:02:40.61 bitrate=N/A speed=18.3x    frame= 4128 fps=444 q=-0.0 size=N/A time=00:02:52.17 bitrate=N/A speed=18.5x    frame= 4410 fps=450 q=-0.0 size=N/A time=00:03:03.93 bitrate=N/A speed=18.8x    frame= 4696 fps=456 q=-0.0 size=N/A time=00:03:15.86 bitrate=N/A speed=  19x    frame= 4972 fps=459 q=-0.0 size=N/A time=00:03:27.37 bitrate=N/A speed=19.1x    frame= 5254 fps=463 q=-0.0 size=N/A time=00:03:39.13 bitrate=N/A speed=19.3x    frame= 5528 fps=466 q=-0.0 size=N/A time=00:03:50.56 bitrate=N/A speed=19.4x    frame= 5799 fps=469 q=-0.0 size=N/A time=00:04:01.86 bitrate=N/A speed=19.5x    frame= 6067 fps=471 q=-0.0 size=N/A time=00:04:13.04 bitrate=N/A speed=19.6x    frame= 6346 fps=473 q=-0.0 size=N/A time=00:04:24.68 bitrate=N/A speed=19.7x    frame= 6620 fps=475 q=-0.0 size=N/A time=00:04:36.10 bitrate=N/A speed=19.8x    frame= 6909 fps=478 q=-0.0 size=N/A time=00:04:48.16 bitrate=N/A speed=  20x    frame= 7204 fps=482 q=-0.0 size=N/A time=00:05:00.46 bitrate=N/A speed=20.1x    frame= 7500 fps=485 q=-0.0 size=N/A time=00:05:12.81 bitrate=N/A speed=20.2x    frame= 7768 fps=486 q=-0.0 size=N/A time=00:05:23.99 bitrate=N/A speed=20.3x    frame= 8027 fps=486 q=-0.0 size=N/A time=00:05:34.79 bitrate=N/A speed=20.3x    frame= 8289 fps=487 q=-0.0 size=N/A time=00:05:45.72 bitrate=N/A speed=20.3x    frame= 8573 fps=489 q=-0.0 size=N/A time=00:05:57.56 bitrate=N/A speed=20.4x    frame= 8844 fps=490 q=-0.0 size=N/A time=00:06:08.86 bitrate=N/A speed=20.4x    frame= 9121 fps=491 q=-0.0 size=N/A time=00:06:20.42 bitrate=N/A speed=20.5x    frame= 9386 fps=492 q=-0.0 size=N/A time=00:06:31.47 bitrate=N/A speed=20.5x    frame= 9683 fps=494 q=-0.0 size=N/A time=00:06:43.86 bitrate=N/A speed=20.6x    frame= 9966 fps=496 q=-0.0 size=N/A time=00:06:55.66 bitrate=N/A speed=20.7x    frame=10256 fps=497 q=-0.0 size=N/A time=00:07:07.76 bitrate=N/A speed=20.7x    frame=10522 fps=498 q=-0.0 size=N/A time=00:07:18.85 bitrate=N/A speed=20.8x    frame=10791 fps=498 q=-0.0 size=N/A time=00:07:30.07 bitrate=N/A speed=20.8x    frame=11072 fps=499 q=-0.0 size=N/A time=00:07:41.79 bitrate=N/A speed=20.8x    frame=11366 fps=501 q=-0.0 size=N/A time=00:07:54.05 bitrate=N/A speed=20.9x    frame=11654 fps=502 q=-0.0 size=N/A time=00:08:06.06 bitrate=N/A speed=20.9x    frame=11944 fps=503 q=-0.0 size=N/A time=00:08:18.16 bitrate=N/A speed=  21x    frame=12231 fps=504 q=-0.0 size=N/A time=00:08:30.13 bitrate=N/A speed=  21x    frame=12504 fps=505 q=-0.0 size=N/A time=00:08:41.52 bitrate=N/A speed=21.1x    frame=12807 fps=507 q=-0.0 size=N/A time=00:08:54.15 bitrate=N/A speed=21.1x    frame=13075 fps=507 q=-0.0 size=N/A time=00:09:05.33 bitrate=N/A speed=21.1x    frame=13356 fps=508 q=-0.0 size=N/A time=00:09:17.05 bitrate=N/A speed=21.2x    frame=13628 fps=508 q=-0.0 size=N/A time=00:09:28.40 bitrate=N/A speed=21.2x    frame=13917 fps=509 q=-0.0 size=N/A time=00:09:40.45 bitrate=N/A speed=21.2x    frame=14190 fps=509 q=-0.0 size=N/A time=00:09:51.84 bitrate=N/A speed=21.2x    frame=14448 fps=509 q=-0.0 size=N/A time=00:10:02.60 bitrate=N/A speed=21.2x    frame=14732 fps=510 q=-0.0 size=N/A time=00:10:14.44 bitrate=N/A speed=21.3x    frame=14986 fps=510 q=-0.0 size=N/A time=00:10:25.04 bitrate=N/A speed=21.3x    frame=15237 fps=509 q=-0.0 size=N/A time=00:10:35.50 bitrate=N/A speed=21.2x    frame=15502 fps=509 q=-0.0 size=N/A time=00:10:46.56 bitrate=N/A speed=21.2x    frame=15764 fps=509 q=-0.0 size=N/A time=00:10:57.49 bitrate=N/A speed=21.2x    frame=16017 fps=509 q=-0.0 size=N/A time=00:11:08.04 bitrate=N/A speed=21.2x    frame=16292 fps=509 q=-0.0 size=N/A time=00:11:19.51 bitrate=N/A speed=21.2x    frame=16536 fps=509 q=-0.0 size=N/A time=00:11:29.68 bitrate=N/A speed=21.2x    frame=16809 fps=509 q=-0.0 size=N/A time=00:11:41.07 bitrate=N/A speed=21.2x    frame=17084 fps=509 q=-0.0 size=N/A time=00:11:52.54 bitrate=N/A speed=21.2x    frame=17346 fps=509 q=-0.0 size=N/A time=00:12:03.47 bitrate=N/A speed=21.2x    frame=17606 fps=509 q=-0.0 size=N/A time=00:12:14.31 bitrate=N/A speed=21.2x    frame=17899 fps=510 q=-0.0 size=N/A time=00:12:26.53 bitrate=N/A speed=21.3x    frame=18197 fps=511 q=-0.0 size=N/A time=00:12:38.96 bitrate=N/A speed=21.3x    frame=18485 fps=512 q=-0.0 size=N/A time=00:12:50.97 bitrate=N/A speed=21.4x    frame=18772 fps=512 q=-0.0 size=N/A time=00:13:02.94 bitrate=N/A speed=21.4x    frame=19037 fps=513 q=-0.0 size=N/A time=00:13:14.00 bitrate=N/A speed=21.4x    frame=19296 fps=513 q=-0.0 size=N/A time=00:13:24.80 bitrate=N/A speed=21.4x    frame=19595 fps=513 q=-0.0 size=N/A time=00:13:37.27 bitrate=N/A speed=21.4x    frame=19884 fps=514 q=-0.0 size=N/A time=00:13:49.32 bitrate=N/A speed=21.4x    frame=20138 fps=514 q=-0.0 size=N/A time=00:13:59.92 bitrate=N/A speed=21.4x    frame=20395 fps=513 q=-0.0 size=N/A time=00:14:10.64 bitrate=N/A speed=21.4x    frame=20659 fps=514 q=-0.0 size=N/A time=00:14:21.65 bitrate=N/A speed=21.4x    frame=20923 fps=513 q=-0.0 size=N/A time=00:14:32.66 bitrate=N/A speed=21.4x    frame=21194 fps=514 q=-0.0 size=N/A time=00:14:43.96 bitrate=N/A speed=21.4x    frame=21467 fps=514 q=-0.0 size=N/A time=00:14:55.35 bitrate=N/A speed=21.4x    frame=21732 fps=514 q=-0.0 size=N/A time=00:15:06.40 bitrate=N/A speed=21.4x    frame=22041 fps=515 q=-0.0 size=N/A time=00:15:19.29 bitrate=N/A speed=21.5x    frame=22336 fps=516 q=-0.0 size=N/A time=00:15:31.59 bitrate=N/A speed=21.5x    frame=22597 fps=515 q=-0.0 size=N/A time=00:15:42.48 bitrate=N/A speed=21.5x    frame=22836 fps=515 q=-0.0 size=N/A time=00:15:52.45 bitrate=N/A speed=21.5x    frame=23081 fps=514 q=-0.0 size=N/A time=00:16:02.67 bitrate=N/A speed=21.4x    frame=23341 fps=514 q=-0.0 size=N/A time=00:16:13.51 bitrate=N/A speed=21.4x    frame=23613 fps=514 q=-0.0 size=N/A time=00:16:24.85 bitrate=N/A speed=21.5x    frame=23871 fps=514 q=-0.0 size=N/A time=00:16:35.61 bitrate=N/A speed=21.4x    frame=24138 fps=514 q=-0.0 size=N/A time=00:16:46.75 bitrate=N/A speed=21.4x    frame=24437 fps=515 q=-0.0 size=N/A time=00:16:59.22 bitrate=N/A speed=21.5x    frame=24727 fps=516 q=-0.0 size=N/A time=00:17:11.32 bitrate=N/A speed=21.5x    frame=24999 fps=516 q=-0.0 size=N/A time=00:17:22.66 bitrate=N/A speed=21.5x    frame=25258 fps=516 q=-0.0 size=N/A time=00:17:33.46 bitrate=N/A speed=21.5x    frame=25545 fps=516 q=-0.0 size=N/A time=00:17:45.43 bitrate=N/A speed=21.5x    frame=25809 fps=516 q=-0.0 size=N/A time=00:17:56.45 bitrate=N/A speed=21.5x    frame=26105 fps=516 q=-0.0 size=N/A time=00:18:08.79 bitrate=N/A speed=21.5x    frame=26393 fps=517 q=-0.0 size=N/A time=00:18:20.80 bitrate=N/A speed=21.6x    frame=26676 fps=517 q=-0.0 size=N/A time=00:18:32.61 bitrate=N/A speed=21.6x    frame=26947 fps=517 q=-0.0 size=N/A time=00:18:43.91 bitrate=N/A speed=21.6x    frame=27213 fps=517 q=-0.0 size=N/A time=00:18:55.00 bitrate=N/A speed=21.6x    frame=27501 fps=517 q=-0.0 size=N/A time=00:19:07.02 bitrate=N/A speed=21.6x    frame=27705 fps=516 q=-0.0 size=N/A time=00:19:15.52 bitrate=N/A speed=21.5x    frame=27984 fps=517 q=-0.0 size=N/A time=00:19:27.16 bitrate=N/A speed=21.5x    frame=28280 fps=517 q=-0.0 size=N/A time=00:19:39.51 bitrate=N/A speed=21.6x    frame=28554 fps=517 q=-0.0 size=N/A time=00:19:50.93 bitrate=N/A speed=21.6x    frame=28836 fps=518 q=-0.0 size=N/A time=00:20:02.70 bitrate=N/A speed=21.6x    frame=29112 fps=518 q=-0.0 size=N/A time=00:20:14.21 bitrate=N/A speed=21.6x    frame=29406 fps=518 q=-0.0 size=N/A time=00:20:26.47 bitrate=N/A speed=21.6x    frame=29701 fps=519 q=-0.0 size=N/A time=00:20:38.77 bitrate=N/A speed=21.6x    frame=30006 fps=519 q=-0.0 size=N/A time=00:20:51.50 bitrate=N/A speed=21.7x    frame=30271 fps=519 q=-0.0 size=N/A time=00:21:02.55 bitrate=N/A speed=21.7x    frame=30520 fps=519 q=-0.0 size=N/A time=00:21:12.93 bitrate=N/A speed=21.6x    frame=30789 fps=519 q=-0.0 size=N/A time=00:21:24.15 bitrate=N/A speed=21.6x    frame=31082 fps=519 q=-0.0 size=N/A time=00:21:36.37 bitrate=N/A speed=21.7x    frame=31356 fps=519 q=-0.0 size=N/A time=00:21:47.80 bitrate=N/A speed=21.7x    frame=31632 fps=520 q=-0.0 size=N/A time=00:21:59.31 bitrate=N/A speed=21.7x    frame=31914 fps=520 q=-0.0 size=N/A time=00:22:11.07 bitrate=N/A speed=21.7x    frame=32162 fps=520 q=-0.0 size=N/A time=00:22:21.42 bitrate=N/A speed=21.7x    frame=32389 fps=519 q=-0.0 size=N/A time=00:22:30.89 bitrate=N/A speed=21.6x    frame=32634 fps=519 q=-0.0 size=N/A time=00:22:41.10 bitrate=N/A speed=21.6x    frame=32873 fps=518 q=-0.0 size=N/A time=00:22:51.07 bitrate=N/A speed=21.6x    frame=33136 fps=518 q=-0.0 size=N/A time=00:23:02.04 bitrate=N/A speed=21.6x    frame=33393 fps=518 q=-0.0 size=N/A time=00:23:12.76 bitrate=N/A speed=21.6x    frame=33628 fps=517 q=-0.0 size=N/A time=00:23:22.56 bitrate=N/A speed=21.6x    frame=33887 fps=517 q=-0.0 size=N/A time=00:23:33.37 bitrate=N/A speed=21.6x    frame=34109 fps=517 q=-0.0 size=N/A time=00:23:42.62 bitrate=N/A speed=21.5x    frame=34342 fps=516 q=-0.0 size=N/A time=00:23:52.34 bitrate=N/A speed=21.5x    [Parsed_ssim_10 @ 00000196cc232740] SSIM Y:0.995219 (23.204857) U:0.994368 (22.493548) V:0.995269 (23.250321) All:0.995086 (23.085245)
[out#0/null @ 00000196cc1e46c0] video:14800KiB audio:269388KiB subtitle:0KiB other streams:0KiB global headers:0KiB muxing overhead: unknown
frame=34443 fps=516 q=-0.0 Lsize=N/A time=00:23:56.56 bitrate=N/A speed=21.5x    
